<svg xmlns="http://www.w3.org/2000/svg" width="48" height="48" shape-rendering="crispEdges">
  <rect width="48" height="48" fill="black" />

  <!-- Head (circular-ish top) -->
  <rect x="20" y="6" width="8" height="1" fill="#999933"/>
  <rect x="18" y="7" width="12" height="1" fill="#999933"/>
  <rect x="17" y="8" width="14" height="1" fill="#999933"/>
  <rect x="16" y="9" width="16" height="1" fill="#999933"/>
  <rect x="15" y="10" width="18" height="2" fill="#999933"/>
  <rect x="14" y="12" width="20" height="2" fill="#999933"/>
  <rect x="13" y="14" width="22" height="2" fill="#999933"/>
  <rect x="14" y="16" width="20" height="1" fill="#999933"/>
  <rect x="15" y="17" width="18" height="1" fill="#999933"/>
  <rect x="16" y="18" width="16" height="1" fill="#999933"/>

  <!-- Eye (single) -->
  <rect x="22" y="12" width="2" height="2" fill="black"/>

  <!-- Mouth (stitched line) -->
  <rect x="20" y="15" width="1" height="1" fill="black"/>
  <rect x="22" y="15" width="1" height="1" fill="black"/>
  <rect x="24" y="15" width="1" height="1" fill="black"/>
  <rect x="26" y="15" width="1" height="1" fill="black"/>

  <!-- Body -->
  <rect x="18" y="20" width="12" height="10" fill="#0000ff"/>

  <!-- Arms -->
  <rect x="14" y="22" width="4" height="2" fill="#999933"/>
  <rect x="30" y="22" width="4" height="2" fill="#999933"/>

  <!-- Legs -->
  <rect x="20" y="30" width="2" height="6" fill="#999933"/>
  <rect x="26" y="30" width="2" height="6" fill="#999933"/>
</svg>
